<svg xmlns="http://www.w3.org/2000/svg" viewBox="0 0 217 217"><defs><style>.cls-1{fill:#3536e5;}.cls-2{fill:#fff;}</style></defs><g id="Layer_2" data-name="Layer 2"><g id="Layer_1-2" data-name="Layer 1"><circle class="cls-1" cx="108.5" cy="108.5" r="108.5"/><path class="cls-2" d="M85.36,151.15l.89.88a4.8,4.8,0,0,1-1.83,1.59,5.19,5.19,0,0,1-6.3-1.13,5.72,5.72,0,0,1-1.15-1.9,6.49,6.49,0,0,1-.41-2.35,6.7,6.7,0,0,1,.41-2.37A6.15,6.15,0,0,1,78.13,144a5.18,5.18,0,0,1,1.74-1.26,5.28,5.28,0,0,1,2.18-.45,5.16,5.16,0,0,1,2.39.56,5.09,5.09,0,0,1,1.81,1.62l-.89.88A3.91,3.91,0,0,0,79.89,144a4.39,4.39,0,0,0-1.47,1.71,6.09,6.09,0,0,0,0,5,4.35,4.35,0,0,0,1.47,1.72,3.74,3.74,0,0,0,2.12.62,3.85,3.85,0,0,0,1.92-.48A4.13,4.13,0,0,0,85.36,151.15Z"/><path class="cls-2" d="M94.37,151.69l.83.8a4,4,0,0,1-3.31,1.72,4,4,0,0,1-2.09-.55,3.82,3.82,0,0,1-1.41-1.49,4.89,4.89,0,0,1,0-4.31,3.89,3.89,0,0,1,1.38-1.49,3.56,3.56,0,0,1,2-.55,3.45,3.45,0,0,1,1.89.53,3.59,3.59,0,0,1,1.29,1.46,4.79,4.79,0,0,1,.47,2.15v.49h-6.2a3.2,3.2,0,0,0,.87,1.93,2.6,2.6,0,0,0,1.92.75,2.46,2.46,0,0,0,1.32-.35A3.3,3.3,0,0,0,94.37,151.69Zm-2.64-4.8a2.29,2.29,0,0,0-1.69.71,3,3,0,0,0-.84,1.84h4.89a3.08,3.08,0,0,0-.74-1.86A2.09,2.09,0,0,0,91.73,146.89Z"/><path class="cls-2" d="M101.87,146v1.18h-.27a2.64,2.64,0,0,0-1.37.38,2.69,2.69,0,0,0-1,1.15,4.58,4.58,0,0,0-.38,2V154H97.6v-7.87h1.21v1.76a2.72,2.72,0,0,1,1.19-1.46,3.27,3.27,0,0,1,1.61-.43Z"/><path class="cls-2" d="M107.71,154H106a1.62,1.62,0,0,1-1.26-.46,1.81,1.81,0,0,1-.44-1.3v-5.06h-1.5v-1h1.5v-2.31h1.24v2.31h2.11v1h-2.11v5c0,.54.25.81.76.81h1.46Z"/><path class="cls-2" d="M111.15,143.1a.82.82,0,0,1-.25.63.81.81,0,0,1-.61.25.88.88,0,1,1,0-1.76.81.81,0,0,1,.61.25A.84.84,0,0,1,111.15,143.1ZM110.91,154h-1.23v-7.87h1.23Z"/><path class="cls-2" d="M115.53,154H114.3v-6.82h-1.5v-1h1.5v-1.73q0-1.92,1.83-1.92h1.55v1h-1.25a.87.87,0,0,0-.69.24,1.07,1.07,0,0,0-.21.74v1.65h2.15v1h-2.15Z"/><path class="cls-2" d="M120.77,143.1a.86.86,0,0,1-.25.63.83.83,0,0,1-.62.25.81.81,0,0,1-.61-.25.82.82,0,0,1-.25-.63.84.84,0,0,1,.25-.63.81.81,0,0,1,.61-.25.83.83,0,0,1,.62.25A.88.88,0,0,1,120.77,143.1ZM120.53,154h-1.24v-7.87h1.24Z"/><path class="cls-2" d="M129.23,151.69l.83.8a4,4,0,0,1-1.46,1.29,4.09,4.09,0,0,1-1.85.43,4,4,0,0,1-2.09-.55,3.82,3.82,0,0,1-1.41-1.49,4.89,4.89,0,0,1,0-4.31,3.89,3.89,0,0,1,1.38-1.49,3.56,3.56,0,0,1,2-.55,3.48,3.48,0,0,1,1.9.53,3.57,3.57,0,0,1,1.28,1.46,4.79,4.79,0,0,1,.47,2.15v.49h-6.19a3.09,3.09,0,0,0,.87,1.93,2.56,2.56,0,0,0,1.91.75,2.52,2.52,0,0,0,1.33-.35A3.38,3.38,0,0,0,129.23,151.69Zm-2.64-4.8a2.3,2.3,0,0,0-1.69.71,3.12,3.12,0,0,0-.84,1.84H129a3.15,3.15,0,0,0-.75-1.86A2.09,2.09,0,0,0,126.59,146.89Z"/><path class="cls-2" d="M138.57,154V152.7a2.85,2.85,0,0,1-1.13,1.1,3.41,3.41,0,0,1-1.67.41,3.62,3.62,0,0,1-2-.55,3.82,3.82,0,0,1-1.35-1.49A4.58,4.58,0,0,1,132,150a4.72,4.72,0,0,1,.48-2.15,3.82,3.82,0,0,1,1.35-1.49,3.46,3.46,0,0,1,1.93-.55,3.25,3.25,0,0,1,1.68.45,3.08,3.08,0,0,1,1.15,1.2v-5h1.23V154ZM133.26,150a3.64,3.64,0,0,0,.35,1.62,2.56,2.56,0,0,0,.95,1.1,2.44,2.44,0,0,0,1.39.4,2.64,2.64,0,0,0,1.62-.52,2.72,2.72,0,0,0,1-1.36v-1a4.2,4.2,0,0,0-.34-1.75,2.73,2.73,0,0,0-.93-1.17,2.39,2.39,0,0,0-1.39-.43,2.47,2.47,0,0,0-1.37.4,2.67,2.67,0,0,0-.93,1.11A3.63,3.63,0,0,0,133.26,150Z"/><path class="cls-2" d="M81.9,92.58c-1.08,4.85-2.69,11.71-2.85,12.48-.48,2.3-1.61,11.38-5.54,10.76-1.54-.24-2.22-2.16-2.64-3.44-.61-1.87-1.09-3.78-1.7-5.65a80.83,80.83,0,0,0-5.31-13C57.71,82.23,48.34,75.88,37.48,75.88v10c9,0,14.5,6.85,17.56,12.59a79.67,79.67,0,0,1,4.9,12.12c.21.62.41,1.3.61,2,1.34,4.5,3.83,12.89,12.66,13.25h.57c3.61,0,8.35-1.4,11.61-7.63A40.71,40.71,0,0,0,88.64,108c.27-1.19,2.76-11.94,3.51-15.44Z"/><path class="cls-2" d="M123.8,120.67a18.48,18.48,0,0,1-14,5.82,17.77,17.77,0,0,1-8.29-1.84,13.49,13.49,0,0,1-5.53-5.18,14.85,14.85,0,0,1-2-7.74,20.85,20.85,0,0,1,1.45-7.83,19.27,19.27,0,0,1,4.08-6.31,19,19,0,0,1,6.11-4.2,18.7,18.7,0,0,1,7.51-1.52A16.91,16.91,0,0,1,120,93.16a11.12,11.12,0,0,1,4.63,3.63,8.93,8.93,0,0,1,1.68,5.37,8.18,8.18,0,0,1-3.53,7q-3.53,2.52-9.87,2.52H102.77a8,8,0,0,0,2.1,5.89,7.73,7.73,0,0,0,5.79,2.14,11.43,11.43,0,0,0,9.06-4.6ZM113.12,98.53a8.84,8.84,0,0,0-5.92,2.11,12.19,12.19,0,0,0-3.66,5.66H112a7.45,7.45,0,0,0,4.27-1.07,3.31,3.31,0,0,0,1.55-2.88,3.38,3.38,0,0,0-1.32-2.75A5.28,5.28,0,0,0,113.12,98.53Z"/><path class="cls-2" d="M129.23,114.58l7.58-35.72h8.54l-7.57,35.53a9.85,9.85,0,0,0-.26,2.07c0,1.29.71,1.94,2.13,1.94h3.11l-1.49,7h-4.72c-2.76,0-4.77-.53-6-1.61s-1.88-2.81-1.88-5.18A20.43,20.43,0,0,1,129.23,114.58Z"/><path class="cls-2" d="M145.54,111.73A20.52,20.52,0,0,1,147,104a20.18,20.18,0,0,1,4-6.34,19.06,19.06,0,0,1,5.92-4.27,17,17,0,0,1,7.19-1.55q7.17,0,11.29,3.94t4.11,10.81a20.44,20.44,0,0,1-1.46,7.7,20.23,20.23,0,0,1-4,6.35,19.29,19.29,0,0,1-5.89,4.27,16.81,16.81,0,0,1-7.15,1.55q-7.19,0-11.33-3.95T145.54,111.73ZM161,119.37a7.72,7.72,0,0,0,4.85-1.71,11.92,11.92,0,0,0,3.5-4.63,15.65,15.65,0,0,0,1.29-6.41,8.31,8.31,0,0,0-1.75-5.56A5.92,5.92,0,0,0,164.12,99a7.75,7.75,0,0,0-4.86,1.71,12.15,12.15,0,0,0-3.53,4.6,15.24,15.24,0,0,0-1.32,6.43,8.24,8.24,0,0,0,1.78,5.57A6,6,0,0,0,161,119.37Z"/><path class="cls-2" d="M108.5,204A95.5,95.5,0,1,1,204,108.5,95.61,95.61,0,0,1,108.5,204Zm0-190A94.5,94.5,0,1,0,203,108.5,94.6,94.6,0,0,0,108.5,14Z"/><rect class="cls-1" x="86" y="3" width="42" height="25"/><g id="Wix_Logo_White" data-name="Wix Logo White"><g id="Wix_Logo_White-2" data-name="Wix Logo White"><path id="Fill_37" data-name="Fill 37" class="cls-2" d="M109,10c-.58.3-.79.81-.79,2.2a2.38,2.38,0,0,1,.72-.43,2.88,2.88,0,0,0,.73-.4c.49-.35.56-.81.56-1.58A3.16,3.16,0,0,0,109,10"/><path id="Fill_38" data-name="Fill 38" class="cls-2" d="M105.6,10.32a2.28,2.28,0,0,0-.6,1.07l-1.54,6-1.29-4.9a4.23,4.23,0,0,0-.7-1.6,2.15,2.15,0,0,0-3,0,4.23,4.23,0,0,0-.7,1.6l-1.29,4.9-1.54-6a2.12,2.12,0,0,0-.6-1.07,2.67,2.67,0,0,0-1.89-.53l3,11.18a3.65,3.65,0,0,0,1.47-.18c.64-.32.94-.58,1.33-2.1.35-1.35,1.31-5.34,1.41-5.62s.1-.47.34-.47.31.33.35.47,1.06,4.27,1.4,5.62c.39,1.52.7,1.78,1.34,2.1a3.59,3.59,0,0,0,1.46.18l3-11.18a2.69,2.69,0,0,0-1.9.53"/><path id="Fill_39" data-name="Fill 39" class="cls-2" d="M110.27,11.64a1.92,1.92,0,0,1-.61.52c-.27.15-.53.25-.8.38a.86.86,0,0,0-.6.86V21a2.48,2.48,0,0,0,1.23-.15c.63-.32.77-.63.78-2V12h0Z"/><path id="Fill_40" data-name="Fill 40" class="cls-2" d="M117.59,15.41l3.75-5.58a3.31,3.31,0,0,0-2.37.45,9.15,9.15,0,0,0-1.06,1.27l-1.38,2a.38.38,0,0,1-.29.22.4.4,0,0,1-.3-.22l-1.38-2a8.6,8.6,0,0,0-1.06-1.27,3.3,3.3,0,0,0-2.37-.45l3.75,5.58L111.14,21a3.64,3.64,0,0,0,2.43-.5,7.52,7.52,0,0,0,1-1.2l1.38-2a.4.4,0,0,1,.3-.22.37.37,0,0,1,.29.22l1.38,2a8.3,8.3,0,0,0,1,1.2,3.57,3.57,0,0,0,2.4.5Z"/></g></g></g></g></svg>